<svg width="212" height="33" viewBox="0 0 212 33" fill="none" xmlns="http://www.w3.org/2000/svg">
<path d="M16.6069 17.5113L0.0686639 15.8509L5.93134 32.1491L17.6223 20.3342L16.6069 17.5113ZM212 24L202.295 9.65383L194.723 25.2317L212 24ZM6.29977 24.4071C7.0796 24.1276 7.48517 23.2688 7.20562 22.4889C6.92607 21.7091 6.06727 21.3035 5.28743 21.5831L6.29977 24.4071ZM10.9309 19.5916C10.1481 19.8626 9.73316 20.7169 10.0042 21.4998C10.2752 22.2826 11.1295 22.6975 11.9124 22.4265L10.9309 19.5916ZM17.527 20.5267C18.3136 20.2669 18.7407 19.4186 18.481 18.632C18.2212 17.8453 17.3729 17.4182 16.5862 17.678L17.527 20.5267ZM22.3016 15.8396C21.511 16.087 21.0707 16.9285 21.3181 17.7191C21.5656 18.5098 22.4071 18.9501 23.1977 18.7026L22.3016 15.8396ZM28.9123 16.9649C29.7069 16.7304 30.1609 15.8962 29.9264 15.1016C29.6919 14.3071 28.8577 13.8531 28.0631 14.0876L28.9123 16.9649ZM33.8222 12.4397C33.0239 12.6609 32.556 13.4875 32.7772 14.2858C32.9985 15.0841 33.825 15.552 34.6233 15.3308L33.8222 12.4397ZM40.3602 13.7933C41.1622 13.5857 41.644 12.7673 41.4364 11.9653C41.2288 11.1633 40.4104 10.6815 39.6084 10.8891L40.3602 13.7933ZM45.4265 9.43674C44.621 9.63035 44.125 10.4403 44.3186 11.2458C44.5122 12.0513 45.3221 12.5473 46.1276 12.3537L45.4265 9.43674ZM51.9222 11.015C52.731 10.8357 53.2413 10.0347 53.062 9.22595C52.8828 8.41715 52.0818 7.90681 51.273 8.08608L51.9222 11.015ZM57.1459 6.83998C56.3339 7.00454 55.8092 7.79613 55.9737 8.60805C56.1383 9.41996 56.9299 9.94475 57.7418 9.7802L57.1459 6.83998ZM63.5851 8.65202C64.4 8.50256 64.9394 7.72084 64.7899 6.90601C64.6404 6.09118 63.8587 5.55179 63.0439 5.70125L63.5851 8.65202ZM68.9507 4.6753C68.1331 4.8093 67.579 5.58066 67.713 6.39818C67.847 7.2157 68.6184 7.7698 69.4359 7.6358L68.9507 4.6753ZM75.3006 6.73254C76.1205 6.6144 76.6895 5.85392 76.5713 5.03396C76.4532 4.214 75.6927 3.64506 74.8728 3.7632L75.3006 6.73254ZM80.8161 2.9668C79.9939 3.06864 79.41 3.81767 79.5118 4.63982C79.6137 5.46196 80.3627 6.04589 81.1848 5.94405L80.8161 2.9668ZM87.0875 5.27358C87.9115 5.1885 88.5106 4.45151 88.4255 3.62746C88.3404 2.80342 87.6034 2.20437 86.7794 2.28945L87.0875 5.27358ZM92.761 1.73466C91.9354 1.80251 91.3211 2.52683 91.3889 3.35248C91.4568 4.17812 92.1811 4.79243 93.0068 4.72458L92.761 1.73466ZM98.9405 4.30061C99.7674 4.25046 100.397 3.53947 100.347 2.71256C100.297 1.88565 99.5858 1.25596 98.7589 1.30611L98.9405 4.30061ZM104.753 1.00824C103.925 1.04025 103.28 1.73726 103.312 2.56507C103.344 3.39288 104.041 4.03801 104.869 4.00601L104.753 1.00824ZM110.797 3.84323C111.625 3.82984 112.286 3.14749 112.273 2.31917C112.259 1.49086 111.577 0.830229 110.749 0.843625L110.797 3.84323ZM116.754 0.815482C115.926 0.809772 115.25 1.4767 115.244 2.30511C115.238 3.13351 115.905 3.8097 116.733 3.81541L116.754 0.815482ZM122.675 3.92639C123.503 3.9517 124.194 3.30096 124.22 2.47292C124.245 1.64488 123.594 0.9531 122.766 0.927788L122.675 3.92639ZM128.773 1.18403C127.946 1.13866 127.239 1.77244 127.193 2.59962C127.148 3.42681 127.782 4.13415 128.609 4.17953L128.773 1.18403ZM134.521 4.577C135.347 4.64284 136.07 4.02677 136.135 3.20097C136.201 2.37516 135.585 1.65234 134.759 1.58649L134.521 4.577ZM140.742 2.13968C139.918 2.05291 139.18 2.65045 139.093 3.47432C139.007 4.29819 139.604 5.03641 140.428 5.12318L140.742 2.13968ZM146.326 5.82164C147.148 5.92977 147.901 5.3516 148.009 4.53026C148.117 3.70892 147.539 2.95543 146.718 2.8473L146.326 5.82164ZM152.666 3.7104C151.848 3.58055 151.079 4.13857 150.949 4.95676C150.82 5.77494 151.378 6.54348 152.196 6.67332L152.666 3.7104ZM158.033 7.68041C158.848 7.83228 159.631 7.2952 159.783 6.48082C159.935 5.66643 159.398 4.88312 158.583 4.73125L158.033 7.68041ZM164.481 5.915C163.671 5.74077 162.873 6.25608 162.699 7.06598C162.525 7.87588 163.04 8.67368 163.85 8.8479L164.481 5.915ZM169.638 10.178C170.443 10.3749 171.255 9.88214 171.452 9.07744C171.649 8.27274 171.156 7.46082 170.351 7.26396L169.638 10.178ZM176.16 8.77252C175.362 8.55292 174.536 9.02245 174.316 9.82124C174.097 10.62 174.566 11.4456 175.365 11.6652L176.16 8.77252ZM181.057 13.3183C181.849 13.5608 182.688 13.1153 182.93 12.3231C183.173 11.531 182.727 10.6922 181.935 10.4497L181.057 13.3183ZM187.673 12.298C186.888 12.0325 186.036 12.4534 185.771 13.2381C185.505 14.0228 185.926 14.8742 186.711 15.1397L187.673 12.298ZM192.285 17.1175C193.062 17.4059 193.925 17.0102 194.214 16.2336C194.502 15.457 194.107 14.5936 193.33 14.3052L192.285 17.1175ZM198.935 16.482C198.168 16.1706 197.293 16.5406 196.981 17.3083C196.67 18.076 197.04 18.9508 197.808 19.2621L198.935 16.482ZM203.28 21.5768C204.038 21.9109 204.924 21.5672 205.258 20.8092C205.592 20.0511 205.248 19.1657 204.49 18.8316L203.28 21.5768ZM209.944 21.333C209.196 20.9764 208.301 21.2936 207.945 22.0414C207.588 22.7892 207.905 23.6844 208.653 24.0409L209.944 21.333ZM11.9124 22.4265C13.6476 21.8258 15.5218 21.1889 17.527 20.5267L16.5862 17.678C14.5657 18.3453 12.6778 18.9868 10.9309 19.5916L11.9124 22.4265ZM23.1977 18.7026C25.0212 18.1319 26.9275 17.5507 28.9123 16.9649L28.0631 14.0876C26.0618 14.6783 24.1399 15.2643 22.3016 15.8396L23.1977 18.7026ZM34.6233 15.3308C36.4798 14.8163 38.3931 14.3025 40.3602 13.7933L39.6084 10.8891C37.6242 11.4027 35.6945 11.9209 33.8222 12.4397L34.6233 15.3308ZM46.1276 12.3537C48.0172 11.8995 49.9494 11.4523 51.9222 11.015L51.273 8.08608C49.2824 8.5273 47.3328 8.97853 45.4265 9.43674L46.1276 12.3537ZM57.7418 9.7802C59.6567 9.39209 61.605 9.01522 63.5851 8.65202L63.0439 5.70125C61.0451 6.06788 59.0785 6.44828 57.1459 6.83998L57.7418 9.7802ZM69.4359 7.6358C71.3646 7.31967 73.3199 7.0179 75.3006 6.73254L74.8728 3.7632C72.8725 4.05139 70.898 4.35612 68.9507 4.6753L69.4359 7.6358ZM81.1848 5.94405C83.131 5.70299 85.099 5.47889 87.0875 5.27358L86.7794 2.28945C84.7702 2.49689 82.782 2.72329 80.8161 2.9668L81.1848 5.94405ZM93.0068 4.72458C94.9672 4.56346 96.9455 4.42159 98.9405 4.30061L98.7589 1.30611C96.7421 1.42842 94.7424 1.57183 92.761 1.73466L93.0068 4.72458ZM104.869 4.00601C106.831 3.93016 108.807 3.87541 110.797 3.84323L110.749 0.843625C108.736 0.876173 106.737 0.931553 104.753 1.00824L104.869 4.00601ZM116.733 3.81541C118.702 3.82898 120.683 3.86551 122.675 3.92639L122.766 0.927788C120.751 0.866177 118.746 0.829215 116.754 0.815482L116.733 3.81541ZM128.609 4.17953C130.571 4.28714 132.542 4.4192 134.521 4.577L134.759 1.58649C132.755 1.42669 130.759 1.29297 128.773 1.18403L128.609 4.17953ZM140.428 5.12318C142.387 5.32953 144.354 5.56194 146.326 5.82164L146.718 2.8473C144.719 2.58416 142.727 2.34871 140.742 2.13968L140.428 5.12318ZM152.196 6.67332C154.137 6.98137 156.083 7.31668 158.033 7.68041L158.583 4.73125C156.606 4.36251 154.633 4.02261 152.666 3.7104L152.196 6.67332ZM163.85 8.8479C165.776 9.26232 167.706 9.70533 169.638 10.178L170.351 7.26396C168.391 6.78452 166.434 6.33524 164.481 5.915L163.85 8.8479ZM175.365 11.6652C177.261 12.1864 179.159 12.7371 181.057 13.3183L181.935 10.4497C180.009 9.86 178.084 9.30128 176.16 8.77252L175.365 11.6652ZM186.711 15.1397C188.569 15.7685 190.428 16.4274 192.285 17.1175L193.33 14.3052C191.444 13.6048 189.558 12.9361 187.673 12.298L186.711 15.1397ZM197.808 19.2621C199.633 20.0023 201.458 20.7736 203.28 21.5768L204.49 18.8316C202.64 18.0163 200.788 17.2333 198.935 16.482L197.808 19.2621Z" fill="#BDBABA"/>
</svg>
