<svg width="212" height="28" viewBox="0 0 212 28" fill="none" xmlns="http://www.w3.org/2000/svg">
<path d="M195.179 14.2745L211.65 16.5005L206.35 0.0110862L194.261 11.4185L195.179 14.2745ZM1.59109e-06 8.25577L10.1024 22.3249L17.2355 6.54141L1.59109e-06 8.25577ZM205.77 7.71866C204.979 7.96525 204.538 8.80629 204.784 9.59716C205.031 10.388 205.872 10.8293 206.663 10.5827L205.77 7.71866ZM200.934 12.2954C201.73 12.0663 202.19 11.2351 201.961 10.439C201.732 9.64292 200.901 9.1833 200.105 9.41243L200.934 12.2954ZM194.461 10.9837C193.661 11.1993 193.188 12.0226 193.403 12.8224C193.619 13.6223 194.442 14.096 195.242 13.8804L194.461 10.9837ZM189.439 15.3958C190.242 15.1926 190.729 14.3768 190.526 13.5737C190.322 12.7706 189.506 12.2843 188.703 12.4875L189.439 15.3958ZM182.973 13.8933C182.167 14.0849 181.669 14.8936 181.86 15.6996C182.052 16.5055 182.86 17.0036 183.666 16.812L182.973 13.8933ZM177.877 18.1453C178.686 17.965 179.195 17.1634 179.015 16.3548C178.834 15.5463 178.033 15.0369 177.224 15.2172L177.877 18.1453ZM171.447 16.4637C170.636 16.6329 170.115 17.4274 170.285 18.2384C170.454 19.0494 171.248 19.5697 172.059 19.4006L171.447 16.4637ZM166.217 20.5771C167.03 20.4192 167.561 19.6319 167.403 18.8186C167.245 18.0054 166.458 17.4742 165.645 17.6322L166.217 20.5771ZM159.846 18.7174C159.031 18.8641 158.489 19.6441 158.635 20.4594C158.782 21.2747 159.562 21.8167 160.377 21.6699L159.846 18.7174ZM154.533 22.6804C155.35 22.5449 155.903 21.7726 155.767 20.9553C155.632 20.138 154.86 19.5853 154.042 19.7208L154.533 22.6804ZM148.216 20.6445C147.397 20.7684 146.833 21.5329 146.957 22.352C147.081 23.1711 147.846 23.7347 148.665 23.6107L148.216 20.6445ZM142.773 24.4593C143.594 24.3471 144.168 23.5908 144.056 22.77C143.944 21.9492 143.187 21.3747 142.367 21.4869L142.773 24.4593ZM136.494 22.2456C135.672 22.3457 135.087 23.0935 135.187 23.9159C135.287 24.7382 136.035 25.3238 136.857 25.2237L136.494 22.2456ZM130.945 25.8983C131.769 25.8106 132.366 25.0717 132.278 24.2479C132.19 23.4242 131.452 22.8275 130.628 22.9152L130.945 25.8983ZM124.765 23.4941C123.94 23.5692 123.332 24.2988 123.407 25.1238C123.482 25.9488 124.212 26.5568 125.037 26.4818L124.765 23.4941ZM119.103 26.9741C119.929 26.9122 120.548 26.1923 120.487 25.3662C120.425 24.5401 119.705 23.9206 118.879 23.9825L119.103 26.9741ZM112.974 24.3764C112.147 24.4247 111.516 25.1342 111.564 25.9613C111.612 26.7883 112.322 27.4196 113.149 27.3713L112.974 24.3764ZM107.215 27.6677C108.043 27.6334 108.686 26.9346 108.652 26.1069C108.617 25.2792 107.919 24.636 107.091 24.6703L107.215 27.6677ZM101.196 24.8631C100.367 24.8829 99.7121 25.5703 99.7319 26.3985C99.7517 27.2267 100.439 27.8821 101.267 27.8623L101.196 24.8631ZM95.3044 27.9506C96.1328 27.946 96.8006 27.2706 96.7959 26.4422C96.7913 25.6138 96.1159 24.946 95.2875 24.9507L95.3044 27.9506ZM89.3916 24.9287C88.5633 24.9177 87.8828 25.5803 87.8719 26.4087C87.8609 27.237 88.5235 27.9174 89.3519 27.9284L89.3916 24.9287ZM83.4003 27.7915C84.2282 27.8187 84.9215 27.1696 84.9488 26.3416C84.976 25.5136 84.3268 24.8204 83.4989 24.7931L83.4003 27.7915ZM77.6023 24.5392C76.7751 24.495 76.0687 25.1298 76.0245 25.9571C75.9803 26.7843 76.6151 27.4908 77.4424 27.5349L77.6023 24.5392ZM71.4967 27.1544C72.3228 27.2162 73.0426 26.5965 73.1044 25.7704C73.1661 24.9443 72.5465 24.2245 71.7204 24.1627L71.4967 27.1544ZM65.8504 23.6587C65.0259 23.5786 64.2925 24.1821 64.2124 25.0066C64.1323 25.8312 64.7358 26.5645 65.5603 26.6446L65.8504 23.6587ZM59.63 25.9996C60.4525 26.0988 61.1996 25.5124 61.2988 24.69C61.398 23.8675 60.8117 23.1204 59.9892 23.0212L59.63 25.9996ZM54.1509 22.2458C53.3311 22.1268 52.57 22.6949 52.4509 23.5147C52.3318 24.3345 52.8999 25.0956 53.7198 25.2147L54.1509 22.2458ZM47.8289 24.2836C48.6455 24.4234 49.4207 23.8747 49.5604 23.0581C49.7002 22.2416 49.1515 21.4664 48.3349 21.3266L47.8289 24.2836ZM42.5435 20.2574C41.7309 20.0961 40.9415 20.6242 40.7803 21.4367C40.6191 22.2493 41.1471 23.0388 41.9597 23.2L42.5435 20.2574ZM36.123 21.9587C36.9309 22.1422 37.7346 21.6362 37.9181 20.8283C38.1017 20.0205 37.5956 19.2168 36.7878 19.0332L36.123 21.9587ZM31.07 17.6478C30.2678 17.4411 29.4499 17.9238 29.2431 18.726C29.0364 19.5282 29.5191 20.3461 30.3213 20.5529L31.07 17.6478ZM24.5603 18.9762C25.3559 19.2069 26.1879 18.749 26.4187 17.9533C26.6494 17.1577 26.1915 16.3256 25.3959 16.0949L24.5603 18.9762ZM19.776 14.3698C18.988 14.1143 18.142 14.5459 17.8864 15.3339C17.6309 16.122 18.0625 16.9679 18.8505 17.2235L19.776 14.3698ZM13.1976 15.2884C13.9769 15.5696 14.8365 15.1658 15.1176 14.3865C15.3988 13.6072 14.995 12.7476 14.2157 12.4665L13.1976 15.2884ZM8.72154 10.3789C7.95227 10.0715 7.07943 10.4459 6.772 11.2152C6.46456 11.9844 6.83896 12.8573 7.60823 13.1647L8.72154 10.3789ZM2.09773 10.8498C2.85569 11.1841 3.74118 10.8407 4.07551 10.0827C4.40985 9.32478 4.06643 8.4393 3.30847 8.10496L2.09773 10.8498ZM200.105 9.41243C198.444 9.89035 196.557 10.4188 194.461 10.9837L195.242 13.8804C197.355 13.3108 199.258 12.7778 200.934 12.2954L200.105 9.41243ZM188.703 12.4875C186.897 12.9445 184.985 13.415 182.973 13.8933L183.666 16.812C185.693 16.3302 187.62 15.8563 189.439 15.3958L188.703 12.4875ZM177.224 15.2172C175.364 15.632 173.437 16.0487 171.447 16.4637L172.059 19.4006C174.063 18.9826 176.004 18.563 177.877 18.1453L177.224 15.2172ZM165.645 17.6322C163.758 17.9987 161.824 18.3613 159.846 18.7174L160.377 21.6699C162.369 21.3113 164.317 20.9462 166.217 20.5771L165.645 17.6322ZM154.042 19.7208C152.135 20.037 150.192 20.3455 148.216 20.6445L148.665 23.6107C150.655 23.3096 152.612 22.9988 154.533 22.6804L154.042 19.7208ZM142.367 21.4869C140.436 21.7508 138.478 22.0043 136.494 22.2456L136.857 25.2237C138.855 24.9805 140.828 24.7251 142.773 24.4593L142.367 21.4869ZM130.628 22.9152C128.694 23.1212 126.739 23.3146 124.765 23.4941L125.037 26.4818C127.026 26.3009 128.996 26.1059 130.945 25.8983L130.628 22.9152ZM118.879 23.9825C116.926 24.1288 114.957 24.2605 112.974 24.3764L113.149 27.3713C115.149 27.2544 117.134 27.1216 119.103 26.9741L118.879 23.9825ZM107.091 24.6703C105.137 24.7513 103.172 24.816 101.196 24.8631L101.267 27.8623C103.261 27.8147 105.244 27.7494 107.215 27.6677L107.091 24.6703ZM95.2875 24.9507C93.3304 24.9617 91.3646 24.9548 89.3916 24.9287L89.3519 27.9284C91.3442 27.9548 93.3289 27.9618 95.3044 27.9506L95.2875 24.9507ZM83.4989 24.7931C81.5385 24.7287 79.5725 24.6444 77.6023 24.5392L77.4424 27.5349C79.4335 27.6412 81.4199 27.7264 83.4003 27.7915L83.4989 24.7931ZM71.7204 24.1627C69.766 24.0166 67.8089 23.8489 65.8504 23.6587L65.5603 26.6446C67.5415 26.8371 69.5207 27.0066 71.4967 27.1544L71.7204 24.1627ZM59.9892 23.0212C58.0427 22.7864 56.0961 22.5283 54.1509 22.2458L53.7198 25.2147C55.6895 25.5007 57.66 25.762 59.63 25.9996L59.9892 23.0212ZM48.3349 21.3266C46.4014 20.9958 44.4705 20.6397 42.5435 20.2574L41.9597 23.2C43.9131 23.5876 45.87 23.9484 47.8289 24.2836L48.3349 21.3266ZM36.7878 19.0332C34.8762 18.5989 32.9698 18.1374 31.07 17.6478L30.3213 20.5529C32.2497 21.0498 34.184 21.5181 36.123 21.9587L36.7878 19.0332ZM25.3959 16.0949C23.5144 15.5492 21.6407 14.9745 19.776 14.3698L18.8505 17.2235C20.7456 17.8381 22.6493 18.422 24.5603 18.9762L25.3959 16.0949ZM14.2157 12.4665C12.3736 11.8019 10.5418 11.1064 8.72154 10.3789L7.60823 13.1647C9.46064 13.905 11.3242 14.6126 13.1976 15.2884L14.2157 12.4665Z" fill="#BDBABA"/>
</svg>
