<svg width="71" height="222" viewBox="0 0 71 222" fill="none" xmlns="http://www.w3.org/2000/svg">
<path d="M17.3358 3.86649L0.800335 5.55401L9.81019 20.3467L18.8964 6.42865L17.3358 3.86649ZM5.30525 221.95L21.6094 216.105L8.39472 204.908L5.30525 221.95ZM8.71263 12.6312C9.42603 12.21 9.66296 11.2903 9.24182 10.5769C8.82069 9.8635 7.90097 9.62657 7.18757 10.0477L8.71263 12.6312ZM12.3806 7.18033C11.6434 7.5583 11.3522 8.4623 11.7302 9.19948C12.1082 9.93666 13.0122 10.2279 13.7493 9.84989L12.3806 7.18033ZM19.1104 7.34441C19.8742 7.0236 20.2333 6.14435 19.9124 5.38057C19.5916 4.61678 18.7124 4.25768 17.9486 4.5785L19.1104 7.34441ZM23.658 2.48117C22.8672 2.72808 22.4263 3.56929 22.6733 4.36006C22.9202 5.15084 23.7614 5.59173 24.5521 5.34482L23.658 2.48117ZM30.108 3.95856C30.9228 3.80941 31.4625 3.0279 31.3134 2.21301C31.1642 1.39812 30.3827 0.858429 29.5678 1.00758L30.108 3.95856ZM35.6845 0.359877C34.8563 0.37945 34.2008 1.0667 34.2204 1.8949C34.24 2.72309 34.9272 3.37861 35.7554 3.35904L35.6845 0.359877ZM41.3682 3.7648C42.184 3.90908 42.9623 3.36473 43.1066 2.54896C43.2508 1.7332 42.7065 0.954926 41.8907 0.810648L41.3682 3.7648ZM47.8963 2.59567C47.1353 2.26837 46.253 2.61997 45.9257 3.381C45.5984 4.14203 45.95 5.02429 46.7111 5.3516L47.8963 2.59567ZM51.5229 8.13907C52.1866 8.6349 53.1265 8.49886 53.6224 7.83521C54.1182 7.17155 53.9822 6.2316 53.3185 5.73576L51.5229 8.13907ZM57.8831 9.98181C57.3369 9.35887 56.3892 9.29659 55.7663 9.8427C55.1434 10.3888 55.0811 11.3365 55.6272 11.9595L57.8831 9.98181ZM58.977 16.541C59.4099 17.2473 60.3334 17.469 61.0397 17.0361C61.746 16.6032 61.9677 15.6796 61.5348 14.9733L58.977 16.541ZM64.3702 20.4111C64.0348 19.6535 63.1489 19.3113 62.3914 19.6466C61.6338 19.9819 61.2916 20.8678 61.6269 21.6254L64.3702 20.4111ZM63.675 27.0281C63.9294 27.8165 64.7748 28.2493 65.5631 27.9949C66.3515 27.7405 66.7844 26.8952 66.53 26.1068L63.675 27.0281ZM68.1418 31.9576C67.9542 31.1507 67.1481 30.6485 66.3411 30.8361C65.5342 31.0236 65.0321 31.8298 65.2197 32.6367L68.1418 31.9576ZM66.3426 38.3866C66.4743 39.2045 67.244 39.7608 68.0619 39.6292C68.8798 39.4975 69.4361 38.7278 69.3045 37.9099L66.3426 38.3866ZM70.0902 43.9245C70.006 43.1004 69.2697 42.5005 68.4455 42.5847C67.6214 42.6689 67.0215 43.4052 67.1057 44.2294L70.0902 43.9245ZM67.5524 50.0357C67.5963 50.863 68.3025 51.498 69.1298 51.4542C69.957 51.4103 70.5921 50.7041 70.5482 49.8768L67.5524 50.0357ZM70.7347 55.8752C70.7264 55.0468 70.0481 54.382 69.2197 54.3903C68.3913 54.3987 67.7265 55.077 67.7349 55.9054L70.7347 55.8752ZM67.6789 61.829C67.6555 62.6571 68.3078 63.3474 69.1359 63.3708C69.964 63.3942 70.6543 62.7419 70.6777 61.9138L67.6789 61.829ZM70.4055 67.8759C70.4572 67.0491 69.8288 66.3369 69.002 66.2853C68.1752 66.2336 67.463 66.862 67.4114 67.6888L70.4055 67.8759ZM66.9508 73.5612C66.8733 74.386 67.4791 75.1175 68.3039 75.195C69.1287 75.2724 69.8601 74.6666 69.9376 73.8419L66.9508 73.5612ZM69.285 79.8375C69.3865 79.0153 68.8022 78.2666 67.98 78.1651C67.1578 78.0636 66.4091 78.6479 66.3076 79.4701L69.285 79.8375ZM65.5115 85.2753C65.3881 86.0945 65.9521 86.8586 66.7713 86.982C67.5905 87.1054 68.3546 86.5414 68.478 85.7222L65.5115 85.2753ZM67.5082 91.6434C67.6524 90.8276 67.108 90.0494 66.2922 89.9052C65.4764 89.761 64.6982 90.3055 64.554 91.1212L67.5082 91.6434ZM63.4568 96.919C63.293 97.7311 63.8186 98.5221 64.6307 98.6859C65.4428 98.8496 66.2339 98.324 66.3976 97.5119L63.4568 96.919ZM65.1491 103.354C65.3314 102.546 64.8242 101.743 64.0161 101.561C63.2079 101.379 62.405 101.886 62.2227 102.694L65.1491 103.354ZM60.8537 108.46C60.6534 109.264 61.1428 110.078 61.9466 110.278C62.7505 110.479 63.5645 109.989 63.7647 109.185L60.8537 108.46ZM62.2626 114.951C62.48 114.151 62.0082 113.327 61.2088 113.11C60.4094 112.892 59.5852 113.364 59.3678 114.163L62.2626 114.951ZM57.7489 119.878C57.5147 120.673 57.9691 121.507 58.7638 121.741C59.5585 121.975 60.3924 121.52 60.6266 120.726L57.7489 119.878ZM58.8872 126.414C59.1375 125.624 58.7002 124.781 57.9105 124.531C57.1208 124.281 56.2777 124.718 56.0274 125.508L58.8872 126.414ZM54.1773 131.146C53.9111 131.931 54.3313 132.783 55.1158 133.049C55.9003 133.315 56.752 132.895 57.0182 132.11L54.1773 131.146ZM55.0486 137.73C55.3304 136.951 54.9273 136.091 54.1482 135.809C53.3692 135.527 52.5092 135.931 52.2275 136.71L55.0486 137.73ZM50.1563 142.263C49.8591 143.037 50.2451 143.904 51.0184 144.202C51.7917 144.499 52.6594 144.113 52.9566 143.339L50.1563 142.263ZM50.7632 148.883C51.0755 148.116 50.7067 147.241 49.9395 146.928C49.1722 146.616 48.297 146.985 47.9846 147.752L50.7632 148.883ZM45.6973 153.215C45.3697 153.976 45.7211 154.858 46.482 155.186C47.243 155.513 48.1253 155.162 48.4528 154.401L45.6973 153.215ZM46.0397 159.858C46.3822 159.104 46.0485 158.214 45.2942 157.872C44.5399 157.529 43.6507 157.863 43.3082 158.617L46.0397 159.858ZM40.8068 163.981C40.4492 164.729 40.765 165.624 41.5122 165.982C42.2595 166.34 43.1552 166.024 43.5128 165.277L40.8068 163.981ZM40.8811 170.635C41.2539 169.895 40.9562 168.994 40.2164 168.621C39.4765 168.248 38.5746 168.546 38.2019 169.286L40.8811 170.635ZM35.4863 174.541C35.0984 175.273 35.3774 176.181 36.1094 176.569C36.8414 176.957 37.7493 176.678 38.1371 175.946L35.4863 174.541ZM35.2858 181.194C35.6889 180.47 35.4289 179.557 34.7052 179.154C33.9815 178.751 33.068 179.011 32.6649 179.734L35.2858 181.194ZM29.7328 184.869C29.3143 185.584 29.5547 186.503 30.2696 186.921C30.9846 187.34 31.9034 187.1 32.3219 186.385L29.7328 184.869ZM29.2477 191.508C29.6816 190.803 29.4614 189.879 28.7558 189.445C28.0501 189.011 27.1262 189.231 26.6923 189.937L29.2477 191.508ZM23.54 194.937C23.0903 195.632 23.2898 196.561 23.9856 197.011C24.6813 197.46 25.6099 197.261 26.0596 196.565L23.54 194.937ZM22.7576 201.548C23.2232 200.863 23.0451 199.93 22.3599 199.464C21.6746 198.999 20.7417 199.177 20.2762 199.862L22.7576 201.548ZM16.8987 204.709C16.417 205.383 16.5729 206.32 17.247 206.802C17.921 207.283 18.8578 207.127 19.3395 206.453L16.8987 204.709ZM15.8039 211.276C16.3018 210.614 16.1688 209.674 15.5068 209.176C14.8447 208.678 13.9043 208.811 13.4064 209.473L15.8039 211.276ZM9.79764 214.147C9.28312 214.797 9.39235 215.74 10.0416 216.254C10.6909 216.769 11.6343 216.66 12.1489 216.01L9.79764 214.147ZM8.37288 220.65C8.90419 220.015 8.81964 219.069 8.18403 218.537C7.54842 218.006 6.60244 218.091 6.07113 218.726L8.37288 220.65ZM13.7493 9.84989C15.588 8.90718 17.3749 8.07338 19.1104 7.34441L17.9486 4.5785C16.1381 5.33896 14.2822 6.20534 12.3806 7.18033L13.7493 9.84989ZM24.5521 5.34482C26.4771 4.74378 28.3287 4.28421 30.108 3.95856L29.5678 1.00758C27.6597 1.35681 25.6898 1.84676 23.658 2.48117L24.5521 5.34482ZM35.7554 3.35904C37.7306 3.31236 39.6005 3.45215 41.3682 3.7648L41.8907 0.810648C39.9157 0.461339 37.8465 0.308783 35.6845 0.359877L35.7554 3.35904ZM46.7111 5.3516C48.4218 6.08736 50.025 7.01993 51.5229 8.13907L53.3185 5.73576C51.6369 4.47937 49.8295 3.4271 47.8963 2.59567L46.7111 5.3516ZM55.6272 11.9595C56.8312 13.3329 57.9481 14.8624 58.977 16.541L61.5348 14.9733C60.4249 13.1625 59.2086 11.4938 57.8831 9.98181L55.6272 11.9595ZM61.6269 21.6254C62.3783 23.3228 63.0611 25.1257 63.675 27.0281L66.53 26.1068C65.8867 24.1132 65.1673 22.2119 64.3702 20.4111L61.6269 21.6254ZM65.2197 32.6367C65.6488 34.4829 66.0231 36.401 66.3426 38.3866L69.3045 37.9099C68.9748 35.861 68.5875 33.8751 68.1418 31.9576L65.2197 32.6367ZM67.1057 44.2294C67.2984 46.1164 67.4473 48.053 67.5524 50.0357L70.5482 49.8768C70.4406 47.8478 70.2881 45.8625 70.0902 43.9245L67.1057 44.2294ZM67.7349 55.9054C67.7544 57.8437 67.7357 59.8192 67.6789 61.829L70.6777 61.9138C70.7355 59.8672 70.7547 57.8533 70.7347 55.8752L67.7349 55.9054ZM67.4114 67.6888C67.2907 69.6199 67.1371 71.5782 66.9508 73.5612L69.9376 73.8419C70.1268 71.8286 70.2828 69.8391 70.4055 67.8759L67.4114 67.6888ZM66.3076 79.4701C66.0712 81.3859 65.8058 83.3217 65.5115 85.2753L68.478 85.7222C68.7762 83.7426 69.0453 81.7804 69.285 79.8375L66.3076 79.4701ZM64.554 91.1212C64.215 93.0396 63.8492 94.9728 63.4568 96.919L66.3976 97.5119C66.7947 95.5425 67.1649 93.5858 67.5082 91.6434L64.554 91.1212ZM62.2227 102.694C61.7912 104.606 61.3348 106.529 60.8537 108.46L63.7647 109.185C64.2512 107.233 64.7127 105.288 65.1491 103.354L62.2227 102.694ZM59.3678 114.163C58.8515 116.062 58.3118 117.967 57.7489 119.878L60.6266 120.726C61.1954 118.795 61.7408 116.869 62.2626 114.951L59.3678 114.163ZM56.0274 125.508C55.4328 127.384 54.816 129.264 54.1773 131.146L57.0182 132.11C57.6634 130.209 58.2865 128.31 58.8872 126.414L56.0274 125.508ZM52.2275 136.71C51.5581 138.561 50.8676 140.412 50.1563 142.263L52.9566 143.339C53.6751 141.47 54.3725 139.599 55.0486 137.73L52.2275 136.71ZM47.9846 147.752C47.2423 149.575 46.4799 151.397 45.6973 153.215L48.4528 154.401C49.2433 152.564 50.0135 150.725 50.7632 148.883L47.9846 147.752ZM43.3082 158.617C42.4939 160.41 41.6601 162.199 40.8068 163.981L43.5128 165.277C44.3749 163.475 45.2172 161.669 46.0397 159.858L43.3082 158.617ZM38.2019 169.286C37.3158 171.045 36.4105 172.797 35.4863 174.541L38.1371 175.946C39.0711 174.183 39.9858 172.413 40.8811 170.635L38.2019 169.286ZM32.6649 179.734C31.7062 181.455 30.7288 183.167 29.7328 184.869L32.3219 186.385C33.3288 184.664 34.3168 182.934 35.2858 181.194L32.6649 179.734ZM26.6923 189.937C25.6599 191.615 24.6091 193.282 23.54 194.937L26.0596 196.565C27.141 194.892 28.2038 193.206 29.2477 191.508L26.6923 189.937ZM20.2762 199.862C19.1686 201.492 18.0427 203.108 16.8987 204.709L19.3395 206.453C20.4975 204.833 21.6369 203.197 22.7576 201.548L20.2762 199.862ZM13.4064 209.473C12.2216 211.048 11.0187 212.606 9.79764 214.147L12.1489 216.01C13.3858 214.45 14.6042 212.871 15.8039 211.276L13.4064 209.473Z" fill="#BDBABA"/>
</svg>
